<?xml version="1.0" encoding="UTF-8"?>
<svg xmlns="http://www.w3.org/2000/svg" width="1150" height="566" viewBox="0 0 1150 566" role="img" aria-label="NERO Familienbesitz logo white and gray on transparent background">
  <title>NERO Familienbesitz Logo - white/gray, transparent</title>
  <desc>Freigestelltes Logo mit weißen und hellgrauen Elementen zur Verwendung auf schwarzem Hintergrund.</desc>
  <g shape-rendering="geometricPrecision">
    <path d="M 802.0 190.0 L 795.0 198.0 L 775.0 239.0 L 757.0 264.0 L 752.0 274.0 L 760.0 298.0 L 770.0 318.0 L 783.0 337.0 L 791.0 322.0 L 804.0 312.0 L 806.0 300.0 L 817.0 288.0 L 816.0 280.0 L 821.0 275.0 L 831.0 274.0 L 842.0 268.0 L 832.0 263.0 L 825.0 262.0 L 820.0 258.0 L 822.0 238.0 L 812.0 216.0 L 808.0 201.0 Z M 1014.0 110.0 L 1012.0 111.0 L 1001.0 147.0 L 995.0 159.0 L 985.0 175.0 L 966.0 200.0 L 966.0 202.0 L 972.0 206.0 L 978.0 208.0 L 986.0 208.0 L 1007.0 197.0 L 1021.0 196.0 L 1026.0 189.0 L 1026.0 178.0 L 1033.0 167.0 L 1034.0 161.0 L 1018.0 140.0 L 1016.0 133.0 Z M 1067.0 110.0 L 1060.0 137.0 L 1067.0 146.0 L 1075.0 163.0 L 1089.0 171.0 L 1095.0 177.0 L 1100.0 189.0 L 1101.0 197.0 L 1106.0 204.0 L 1104.0 186.0 L 1095.0 157.0 L 1083.0 132.0 Z M 909.0 248.0 L 914.0 264.0 L 932.0 273.0 L 939.0 281.0 L 942.0 280.0 L 948.0 274.0 L 952.0 266.0 L 959.0 261.0 L 965.0 253.0 L 959.0 252.0 L 955.0 249.0 L 944.0 250.0 L 938.0 247.0 L 927.0 250.0 L 919.0 249.0 L 914.0 246.0 Z M 894.0 208.0 L 907.0 213.0 L 902.0 201.0 Z M 438.0 27.0 L 582.0 26.0 L 586.0 31.0 L 582.0 26.0 L 445.0 25.0 Z" fill="#cfcfcf" fill-rule="evenodd"/>
    <path d="M 920.0 26.0 L 887.0 30.0 L 857.0 39.0 L 830.0 52.0 L 827.0 56.0 L 827.0 62.0 L 831.0 66.0 L 836.0 66.0 L 848.0 59.0 L 870.0 50.0 L 905.0 42.0 L 944.0 41.0 L 960.0 43.0 L 980.0 48.0 L 1001.0 56.0 L 1025.0 69.0 L 1040.0 80.0 L 1060.0 99.0 L 1063.0 104.0 L 1059.0 114.0 L 1055.0 132.0 L 1052.0 133.0 L 1021.0 106.0 L 1015.0 103.0 L 1010.0 104.0 L 1007.0 107.0 L 998.0 138.0 L 992.0 151.0 L 959.0 200.0 L 955.0 199.0 L 922.0 178.0 L 916.0 177.0 L 886.0 207.0 L 884.0 207.0 L 837.0 187.0 L 822.0 178.0 L 816.0 176.0 L 806.0 177.0 L 800.0 181.0 L 792.0 192.0 L 769.0 236.0 L 749.0 265.0 L 746.0 257.0 L 742.0 254.0 L 738.0 254.0 L 734.0 257.0 L 733.0 264.0 L 744.0 300.0 L 760.0 332.0 L 781.0 360.0 L 808.0 385.0 L 829.0 399.0 L 849.0 409.0 L 874.0 418.0 L 904.0 424.0 L 937.0 425.0 L 973.0 420.0 L 1001.0 411.0 L 1039.0 390.0 L 1053.0 379.0 L 1074.0 358.0 L 1094.0 331.0 L 1110.0 298.0 L 1121.0 256.0 L 1123.0 236.0 L 1123.0 214.0 L 1118.0 179.0 L 1104.0 139.0 L 1094.0 120.0 L 1081.0 101.0 L 1057.0 75.0 L 1026.0 52.0 L 994.0 37.0 L 960.0 28.0 Z M 1091.0 182.0 L 1098.0 205.0 L 1109.0 216.0 L 1109.0 237.0 L 1107.0 254.0 L 1102.0 277.0 L 1097.0 292.0 L 1080.0 326.0 L 1065.0 346.0 L 1052.0 360.0 L 1033.0 376.0 L 1007.0 392.0 L 979.0 403.0 L 958.0 408.0 L 941.0 410.0 L 915.0 410.0 L 892.0 407.0 L 870.0 401.0 L 838.0 387.0 L 813.0 370.0 L 789.0 347.0 L 790.0 335.0 L 792.0 331.0 L 800.0 322.0 L 808.0 317.0 L 811.0 311.0 L 812.0 302.0 L 821.0 294.0 L 823.0 290.0 L 823.0 282.0 L 848.0 274.0 L 853.0 269.0 L 851.0 264.0 L 827.0 255.0 L 827.0 247.0 L 829.0 240.0 L 824.0 224.0 L 817.0 212.0 L 816.0 205.0 L 812.0 195.0 L 805.0 185.0 L 811.0 180.0 L 819.0 182.0 L 833.0 191.0 L 853.0 200.0 L 907.0 220.0 L 913.0 219.0 L 915.0 215.0 L 911.0 203.0 L 906.0 196.0 L 918.0 182.0 L 938.0 195.0 L 969.0 212.0 L 978.0 215.0 L 986.0 215.0 L 1009.0 203.0 L 1023.0 202.0 L 1029.0 197.0 L 1031.0 193.0 L 1032.0 180.0 L 1040.0 168.0 L 1041.0 161.0 L 1024.0 138.0 L 1021.0 116.0 L 1023.0 114.0 L 1059.0 146.0 L 1069.0 166.0 L 1074.0 171.0 L 1084.0 175.0 Z M 29.0 27.0 L 25.0 32.0 L 26.0 421.0 L 30.0 424.0 L 36.0 424.0 L 39.0 421.0 L 40.0 409.0 L 39.0 54.0 L 41.0 53.0 L 393.0 424.0 L 400.0 424.0 L 403.0 420.0 L 403.0 30.0 L 400.0 27.0 L 395.0 26.0 L 391.0 28.0 L 389.0 32.0 L 388.0 397.0 L 37.0 27.0 Z M 650.0 27.0 L 646.0 31.0 L 646.0 37.0 L 649.0 41.0 L 677.0 44.0 L 695.0 52.0 L 705.0 59.0 L 715.0 69.0 L 727.0 86.0 L 736.0 112.0 L 738.0 128.0 L 736.0 153.0 L 730.0 173.0 L 718.0 195.0 L 703.0 211.0 L 688.0 221.0 L 670.0 227.0 L 651.0 228.0 L 648.0 230.0 L 646.0 236.0 L 704.0 349.0 L 738.0 419.0 L 743.0 424.0 L 749.0 424.0 L 753.0 419.0 L 752.0 413.0 L 666.0 243.0 L 668.0 241.0 L 674.0 241.0 L 690.0 236.0 L 702.0 230.0 L 713.0 222.0 L 725.0 210.0 L 733.0 199.0 L 745.0 174.0 L 750.0 155.0 L 752.0 139.0 L 750.0 109.0 L 743.0 86.0 L 735.0 71.0 L 728.0 61.0 L 709.0 43.0 L 691.0 33.0 L 669.0 27.0 Z M 802.0 189.0 L 809.0 201.0 L 813.0 216.0 L 823.0 238.0 L 821.0 258.0 L 825.0 261.0 L 832.0 262.0 L 842.0 266.0 L 843.0 268.0 L 831.0 275.0 L 821.0 276.0 L 817.0 280.0 L 818.0 288.0 L 807.0 300.0 L 805.0 312.0 L 792.0 322.0 L 783.0 338.0 L 769.0 318.0 L 759.0 298.0 L 751.0 274.0 L 756.0 264.0 L 774.0 239.0 L 794.0 198.0 Z M 1014.0 109.0 L 1019.0 140.0 L 1035.0 161.0 L 1034.0 167.0 L 1027.0 178.0 L 1027.0 189.0 L 1021.0 197.0 L 1007.0 198.0 L 986.0 209.0 L 978.0 209.0 L 968.0 205.0 L 965.0 202.0 L 965.0 200.0 L 984.0 175.0 L 994.0 159.0 L 1000.0 147.0 L 1011.0 111.0 Z M 685.0 447.0 L 683.0 449.0 L 683.0 532.0 L 691.0 537.0 L 698.0 539.0 L 716.0 538.0 L 726.0 532.0 L 733.0 521.0 L 735.0 513.0 L 733.0 497.0 L 730.0 491.0 L 723.0 484.0 L 714.0 480.0 L 702.0 480.0 L 692.0 485.0 L 690.0 484.0 L 690.0 450.0 L 689.0 448.0 Z M 435.0 233.0 L 436.0 240.0 L 441.0 243.0 L 580.0 243.0 L 584.0 241.0 L 586.0 237.0 L 585.0 231.0 L 581.0 228.0 L 439.0 228.0 Z M 900.0 247.0 L 905.0 256.0 L 908.0 267.0 L 912.0 271.0 L 927.0 277.0 L 932.0 284.0 L 938.0 289.0 L 942.0 289.0 L 950.0 282.0 L 958.0 269.0 L 967.0 262.0 L 976.0 250.0 L 976.0 247.0 L 974.0 245.0 L 964.0 247.0 L 958.0 243.0 L 947.0 244.0 L 940.0 241.0 L 922.0 243.0 L 916.0 239.0 L 911.0 239.0 L 903.0 243.0 Z M 435.0 415.0 L 436.0 422.0 L 445.0 425.0 L 582.0 424.0 L 586.0 419.0 L 585.0 413.0 L 581.0 410.0 L 439.0 410.0 Z M 435.0 32.0 L 435.0 37.0 L 439.0 41.0 L 582.0 41.0 L 586.0 36.0 L 586.0 32.0 L 582.0 27.0 L 439.0 27.0 Z M 623.0 177.0 L 620.0 178.0 L 617.0 182.0 L 617.0 305.0 L 619.0 308.0 L 625.0 310.0 L 631.0 304.0 L 631.0 184.0 L 627.0 178.0 Z M 510.0 481.0 L 503.0 485.0 L 495.0 496.0 L 493.0 504.0 L 493.0 515.0 L 495.0 522.0 L 504.0 534.0 L 512.0 538.0 L 528.0 539.0 L 535.0 537.0 L 541.0 533.0 L 540.0 528.0 L 528.0 532.0 L 514.0 531.0 L 504.0 523.0 L 501.0 517.0 L 501.0 511.0 L 523.0 509.0 L 541.0 510.0 L 544.0 507.0 L 544.0 499.0 L 539.0 488.0 L 532.0 482.0 L 526.0 480.0 Z M 793.0 481.0 L 784.0 487.0 L 778.0 497.0 L 776.0 504.0 L 776.0 515.0 L 778.0 522.0 L 782.0 529.0 L 792.0 537.0 L 799.0 539.0 L 811.0 539.0 L 822.0 535.0 L 825.0 531.0 L 822.0 527.0 L 811.0 532.0 L 797.0 531.0 L 787.0 523.0 L 783.0 511.0 L 789.0 509.0 L 824.0 510.0 L 827.0 508.0 L 826.0 495.0 L 823.0 489.0 L 813.0 481.0 Z M 118.0 484.0 L 116.0 487.0 L 118.0 490.0 L 122.0 490.0 L 131.0 486.0 L 138.0 486.0 L 143.0 488.0 L 148.0 495.0 L 148.0 503.0 L 146.0 505.0 L 129.0 507.0 L 118.0 511.0 L 111.0 521.0 L 113.0 532.0 L 120.0 538.0 L 132.0 539.0 L 140.0 536.0 L 147.0 531.0 L 148.0 537.0 L 153.0 538.0 L 155.0 536.0 L 155.0 495.0 L 152.0 486.0 L 146.0 481.0 L 136.0 479.0 L 125.0 481.0 Z M 204.0 481.0 L 203.0 536.0 L 205.0 538.0 L 209.0 538.0 L 211.0 533.0 L 210.0 499.0 L 216.0 490.0 L 224.0 486.0 L 232.0 487.0 L 237.0 492.0 L 239.0 497.0 L 240.0 538.0 L 244.0 538.0 L 246.0 536.0 L 247.0 496.0 L 252.0 490.0 L 259.0 486.0 L 265.0 486.0 L 270.0 488.0 L 274.0 492.0 L 276.0 497.0 L 276.0 537.0 L 282.0 537.0 L 282.0 492.0 L 280.0 487.0 L 275.0 482.0 L 270.0 480.0 L 258.0 480.0 L 253.0 482.0 L 244.0 489.0 L 241.0 484.0 L 234.0 480.0 L 223.0 480.0 L 212.0 487.0 L 210.0 486.0 L 209.0 481.0 Z M 1067.0 109.0 L 1072.0 114.0 L 1084.0 132.0 L 1096.0 157.0 L 1105.0 186.0 L 1107.0 196.0 L 1106.0 205.0 L 1100.0 197.0 L 1099.0 189.0 L 1094.0 177.0 L 1089.0 172.0 L 1077.0 166.0 L 1074.0 163.0 L 1066.0 146.0 L 1059.0 137.0 Z M 704.0 486.0 L 709.0 486.0 L 717.0 489.0 L 724.0 496.0 L 727.0 504.0 L 727.0 514.0 L 724.0 522.0 L 717.0 529.0 L 711.0 532.0 L 699.0 532.0 L 692.0 529.0 L 689.0 526.0 L 689.0 496.0 L 692.0 492.0 Z M 908.0 248.0 L 914.0 245.0 L 923.0 249.0 L 938.0 246.0 L 944.0 249.0 L 955.0 248.0 L 959.0 251.0 L 965.0 251.0 L 966.0 253.0 L 962.0 259.0 L 953.0 266.0 L 949.0 274.0 L 942.0 281.0 L 939.0 282.0 L 932.0 274.0 L 913.0 264.0 Z M 78.0 451.0 L 35.0 451.0 L 33.0 453.0 L 34.0 538.0 L 38.0 538.0 L 40.0 536.0 L 41.0 498.0 L 76.0 497.0 L 76.0 493.0 L 73.0 491.0 L 62.0 492.0 L 40.0 490.0 L 40.0 459.0 L 77.0 458.0 L 79.0 456.0 Z M 589.0 481.0 L 587.0 483.0 L 588.0 537.0 L 593.0 538.0 L 595.0 536.0 L 596.0 496.0 L 603.0 489.0 L 610.0 486.0 L 616.0 486.0 L 621.0 488.0 L 626.0 493.0 L 628.0 498.0 L 628.0 537.0 L 633.0 538.0 L 635.0 531.0 L 635.0 498.0 L 632.0 488.0 L 626.0 482.0 L 621.0 480.0 L 609.0 480.0 L 602.0 483.0 L 597.0 488.0 L 595.0 487.0 L 594.0 481.0 Z M 1080.0 481.0 L 1078.0 483.0 L 1078.0 486.0 L 1082.0 488.0 L 1109.0 487.0 L 1110.0 490.0 L 1083.0 525.0 L 1078.0 533.0 L 1078.0 537.0 L 1121.0 538.0 L 1123.0 536.0 L 1123.0 533.0 L 1121.0 531.0 L 1090.0 530.0 L 1090.0 528.0 L 1121.0 488.0 L 1121.0 482.0 Z M 881.0 480.0 L 874.0 483.0 L 870.0 487.0 L 868.0 492.0 L 869.0 500.0 L 873.0 506.0 L 894.0 515.0 L 899.0 521.0 L 899.0 526.0 L 896.0 530.0 L 892.0 532.0 L 880.0 532.0 L 871.0 527.0 L 867.0 529.0 L 867.0 532.0 L 870.0 535.0 L 877.0 538.0 L 892.0 539.0 L 904.0 533.0 L 907.0 526.0 L 906.0 518.0 L 904.0 514.0 L 898.0 509.0 L 880.0 502.0 L 876.0 498.0 L 875.0 494.0 L 879.0 488.0 L 884.0 486.0 L 892.0 486.0 L 900.0 490.0 L 904.0 490.0 L 905.0 486.0 L 902.0 483.0 L 894.0 480.0 Z M 1013.0 471.0 L 1000.0 484.0 L 1000.0 487.0 L 1009.0 489.0 L 1010.0 532.0 L 1017.0 538.0 L 1033.0 538.0 L 1040.0 534.0 L 1039.0 528.0 L 1029.0 532.0 L 1022.0 532.0 L 1017.0 528.0 L 1016.0 489.0 L 1018.0 487.0 L 1038.0 487.0 L 1039.0 482.0 L 1017.0 481.0 L 1016.0 472.0 Z M 388.0 447.0 L 385.0 450.0 L 385.0 535.0 L 387.0 538.0 L 391.0 538.0 L 393.0 535.0 L 393.0 450.0 L 390.0 447.0 Z M 784.0 501.0 L 787.0 495.0 L 794.0 488.0 L 799.0 486.0 L 807.0 486.0 L 813.0 489.0 L 820.0 499.0 L 819.0 504.0 L 785.0 504.0 Z M 501.0 503.0 L 503.0 496.0 L 511.0 488.0 L 516.0 486.0 L 524.0 486.0 L 530.0 489.0 L 537.0 500.0 L 535.0 504.0 Z M 148.0 512.0 L 148.0 523.0 L 137.0 531.0 L 125.0 532.0 L 119.0 527.0 L 119.0 520.0 L 124.0 515.0 L 138.0 511.0 L 146.0 510.0 Z M 334.0 480.0 L 329.0 483.0 L 329.0 535.0 L 331.0 538.0 L 335.0 538.0 L 337.0 535.0 L 337.0 484.0 Z M 953.0 480.0 L 950.0 483.0 L 950.0 536.0 L 952.0 538.0 L 955.0 538.0 L 957.0 536.0 L 957.0 482.0 Z M 442.0 481.0 L 441.0 536.0 L 442.0 538.0 L 446.0 538.0 L 448.0 535.0 L 448.0 483.0 L 447.0 481.0 Z M 893.0 208.0 L 902.0 200.0 L 907.0 208.0 L 908.0 213.0 L 906.0 214.0 Z M 444.0 452.0 L 440.0 454.0 L 439.0 460.0 L 441.0 463.0 L 446.0 464.0 L 449.0 461.0 L 450.0 457.0 L 448.0 453.0 Z M 333.0 452.0 L 330.0 453.0 L 327.0 457.0 L 328.0 461.0 L 332.0 464.0 L 338.0 461.0 L 338.0 455.0 Z M 953.0 452.0 L 949.0 455.0 L 949.0 461.0 L 955.0 464.0 L 959.0 461.0 L 959.0 456.0 L 957.0 453.0 Z" fill="#ffffff" fill-rule="evenodd"/>
  </g>
</svg>
